<?xml version="1.0" encoding="UTF-8"?>
<!--
  - STBioData is an application to integrate, retrieve, and visualize biodiversity data using
  - spatiotemporal information. It uses semantics, data visualization and mapping
  - techniques to achieve that.
  -
  - Copyright (c) 2018-2024  Dilvan A. Moreira
  -
  - This program is free software: you can redistribute it and/or modify
  - it under the terms of the GNU General Public License as published by
  - the Free Software Foundation, either version 3 of the License, or
  - (at your option) any later version.
  -
  - This program is distributed in the hope that it will be useful,
  - but WITHOUT ANY WARRANTY; without even the implied warranty of
  - MERCHANTABILITY or FITNESS FOR A PARTICULAR PURPOSE.  See the
  - GNU General Public License for more details.
  -
  - You should have received a copy of the GNU General Public License
  - along with this program.  If not, see <https://www.gnu.org/licenses/>.
  -->

<svg width="23px" height="32px" viewBox="0 0 23 32" version="1.1" xmlns="http://www.w3.org/2000/svg" xmlns:xlink="http://www.w3.org/1999/xlink">
    <g id="Page-1" stroke="none" stroke-width="1" fill="none" fill-rule="evenodd">
        <g id="Group" transform="translate(1.000000, 1.000000)">
            <path d="M21,20 C21,18.5807292 20.7744141,17.4153646 20.3232422,16.5039063 L12.8583984,1.38671875 C12.6396484,0.95703125 12.3149414,0.618489583 11.8842773,0.37109375 C11.4536133,0.123697917 10.9921875,1.42108547e-14 10.5,1.42108547e-14 C10.0078125,1.42108547e-14 9.54638672,0.123697917 9.11572266,0.37109375 C8.68505859,0.618489583 8.3671875,0.95703125 8.16210938,1.38671875 L0.676757813,16.5039063 C0.225585938,17.4153646 0,18.5807292 0,20 C0,22.7604167 1.02539063,25.1171875 3.07617188,27.0703125 C5.12695313,29.0234375 7.6015625,30 10.5,30 C13.3984375,30 15.8730469,29.0234375 17.9238281,27.0703125 C19.9746094,25.1171875 21,22.7604167 21,20 Z" id="path3029" stroke="#FFFFFF" stroke-width="0.5" fill="#4990E2" fill-rule="nonzero" transform="translate(10.500000, 15.000000) scale(1, -1) translate(-10.500000, -15.000000) "></path>
        </g>
    </g>
</svg>